Coordinates
version=1
nRows=23
nColumns=38
inDegrees=no

Units are S.I. units (second, meters, Newtons, ...)
If the header above contains a line with 'inDegrees', this indicates whether rotational values are in degrees (yes) or radians (no).

endheader
time	pelvis_tilt	pelvis_list	pelvis_rotation	pelvis_tx	pelvis_ty	pelvis_tz	hip_flexion_r	hip_adduction_r	hip_rotation_r	knee_angle_r	ankle_angle_r	subtalar_angle_r	mtp_angle_r	hip_flexion_l	hip_adduction_l	hip_rotation_l	knee_angle_l	ankle_angle_l	subtalar_angle_l	mtp_angle_l	lumbar_extension	lumbar_bending	lumbar_rotation	arm_flex_r	arm_add_r	arm_rot_r	elbow_flex_r	pro_sup_r	wrist_flex_r	wrist_dev_r	arm_flex_l	arm_add_l	arm_rot_l	elbow_flex_l	pro_sup_l	wrist_flex_l	wrist_dev_l
0	0.0991976	1.43016	-1.67682	0.975692	1.10928	0.961314	0.402274	-0.102899	-0.0779292	0.800988	-0.0226544	0	0	-0.206005	0.0594836	-0.149655	0.184651	0.139279	0	0	-0.232963	-0.0362885	-0.158452	-0.281911	-0.038578	-0.479676	0.499849	1.05314	0	0	-0.126344	-0.410406	0.489495	0.640943	0.560255	0	0
0.01	0.0827441	1.4336	-1.65864	0.975853	1.10088	0.960311	0.401913	-0.100309	-0.0865988	0.747831	-0.019612	0	0	-0.21672	0.0575402	-0.142158	0.176713	0.143869	0	0	-0.231293	-0.032655	-0.159885	-0.277427	-0.0391729	-0.476677	0.500811	1.05212	0	0	-0.119224	-0.408623	0.487082	0.638566	0.565441	0	0
0.02	0.0621681	1.43636	-1.63601	0.975995	1.09203	0.959271	0.399506	-0.0980239	-0.0984571	0.694742	-0.0147953	0	0	-0.228702	0.0547911	-0.13701	0.168734	0.1488	0	0	-0.229561	-0.0285025	-0.161415	-0.273915	-0.0398805	-0.473805	0.501343	1.05049	0	0	-0.113016	-0.406527	0.48507	0.636285	0.573136	0	0
0.03	0.0375639	1.43891	-1.60922	0.976065	1.08295	0.958157	0.395913	-0.0952823	-0.112468	0.641613	-0.00932344	0	0	-0.240969	0.051183	-0.13325	0.161201	0.154188	0	0	-0.227718	-0.0239477	-0.162987	-0.270451	-0.0403286	-0.472156	0.500985	1.04905	0	0	-0.107411	-0.404281	0.481262	0.634758	0.578965	0	0
0.04	0.00823775	1.44145	-1.57752	0.976041	1.07365	0.956953	0.391464	-0.0917034	-0.128187	0.588536	-0.00411946	0	0	-0.253201	0.0465983	-0.130565	0.154214	0.160087	0	0	-0.225415	-0.0189464	-0.165069	-0.267643	-0.0409218	-0.469513	0.501234	1.048	0	0	-0.102273	-0.4019	0.477834	0.633003	0.584084	0	0
0.05	-0.0260283	1.44405	-1.54089	0.975916	1.06419	0.955648	0.386575	-0.0870907	-0.144756	0.53613	0.00087122	0	0	-0.265214	0.0412753	-0.128519	0.147701	0.166077	0	0	-0.222667	-0.013522	-0.167512	-0.265507	-0.0415673	-0.466571	0.502431	1.04742	0	0	-0.0976881	-0.399336	0.474519	0.631263	0.591085	0	0
0.06	-0.0642629	1.44642	-1.49987	0.975762	1.05459	0.954269	0.38105	-0.0817653	-0.162071	0.484545	0.00535907	0	0	-0.277232	0.0355176	-0.1258	0.141159	0.17175	0	0	-0.219992	-0.00765783	-0.170406	-0.263849	-0.0420836	-0.464635	0.504185	1.04732	0	0	-0.0932648	-0.397071	0.47264	0.630167	0.598853	0	0
0.07	-0.105674	1.44915	-1.45594	0.97549	1.04484	0.952766	0.375881	-0.0754263	-0.178334	0.434205	0.00933307	0	0	-0.288323	0.0295376	-0.123614	0.135065	0.17741	0	0	-0.216663	-0.00173127	-0.173548	-0.261675	-0.0424707	-0.464349	0.504593	1.04824	0	0	-0.0894872	-0.394873	0.470805	0.629229	0.604453	0	0
0.08	-0.151663	1.45173	-1.40772	0.975045	1.03495	0.95118	0.37047	-0.0676936	-0.192458	0.385119	0.0131939	0	0	-0.298334	0.0226031	-0.123245	0.131764	0.184496	0	0	-0.213149	0.0043406	-0.176554	-0.260224	-0.0430402	-0.462859	0.50579	1.04919	0	0	-0.0866251	-0.393166	0.468674	0.629903	0.607393	0	0
0.09	-0.20349	1.45413	-1.35378	0.974447	1.02493	0.949534	0.364933	-0.0585647	-0.204336	0.337473	0.0166265	0	0	-0.30703	0.0146111	-0.124647	0.131548	0.192996	0	0	-0.20918	0.0106203	-0.179262	-0.258991	-0.0436268	-0.461381	0.506521	1.05033	0	0	-0.083687	-0.391615	0.467862	0.630195	0.60913	0	0
0.1	-0.259643	1.45639	-1.29561	0.973729	1.01479	0.947812	0.359497	-0.0484116	-0.212881	0.291677	0.0198391	0	0	-0.314354	0.00620748	-0.126854	0.133575	0.202202	0	0	-0.204948	0.0170172	-0.181416	-0.257795	-0.0438723	-0.46194	0.506801	1.05246	0	0	-0.0802012	-0.390124	0.469414	0.629597	0.610566	0	0
0.11	-0.318588	1.45826	-1.23457	0.972912	1.00456	0.946056	0.353904	-0.0376262	-0.217099	0.247975	0.0223834	0	0	-0.320299	-0.00258775	-0.130044	0.138052	0.211744	0	0	-0.200756	0.0234908	-0.18392	-0.256288	-0.0439914	-0.463481	0.506801	1.0556	0	0	-0.0767698	-0.388668	0.471506	0.628379	0.611267	0	0
0.12	-0.377613	1.45968	-1.17276	0.97211	0.994333	0.94429	0.347964	-0.0270413	-0.217565	0.206661	0.0241118	0	0	-0.324595	-0.0116665	-0.133412	0.145537	0.221702	0	0	-0.196973	0.0299817	-0.187264	-0.254427	-0.044241	-0.464432	0.506785	1.05835	0	0	-0.073131	-0.387659	0.474217	0.627863	0.609587	0	0
0.13	-0.435143	1.4605	-1.11223	0.971264	0.984002	0.942541	0.341523	-0.0165598	-0.213839	0.1682	0.0245649	0	0	-0.328281	-0.0208193	-0.136963	0.15494	0.23152	0	0	-0.193611	0.0362826	-0.190609	-0.252633	-0.044634	-0.464667	0.506777	1.06058	0	0	-0.0692285	-0.387316	0.479697	0.627842	0.606563	0	0
0.14	-0.489238	1.4608	-1.05525	0.970285	0.973453	0.940846	0.334987	-0.00650154	-0.207915	0.134026	0.0238079	0	0	-0.331641	-0.0302461	-0.141869	0.166885	0.24166	0	0	-0.190266	0.0420559	-0.194032	-0.251159	-0.045209	-0.464061	0.506517	1.06167	0	0	-0.0660784	-0.387339	0.485625	0.627883	0.604612	0	0
0.15	-0.536377	1.4607	-1.00515	0.969277	0.96278	0.939227	0.32996	0.00210502	-0.203508	0.108107	0.023842	0	0	-0.335069	-0.0391582	-0.147001	0.179714	0.250502	0	0	-0.187357	0.0472119	-0.197703	-0.24999	-0.0460114	-0.462839	0.506369	1.06182	0	0	-0.0632416	-0.387293	0.491142	0.627838	0.604217	0	0
0.16	-0.569943	1.46073	-0.9692	0.968205	0.951989	0.937729	0.328458	0.00815619	-0.204087	0.0951303	0.0273455	0	0	-0.339499	-0.0462888	-0.151106	0.191484	0.25581	0	0	-0.185052	0.0507296	-0.201141	-0.248881	-0.0465952	-0.462254	0.506052	1.06151	0	0	-0.0611027	-0.387229	0.494967	0.628338	0.605162	0	0
0.17	-0.594053	1.45978	-0.942774	0.967083	0.941018	0.936467	0.327793	0.0131683	-0.207389	0.0917416	0.0310115	0	0	-0.344669	-0.0536173	-0.15669	0.204984	0.259569	0	0	-0.184062	0.0539118	-0.204513	-0.248115	-0.04706	-0.461953	0.506159	1.06099	0	0	-0.0593636	-0.387185	0.49867	0.628713	0.60641	0	0
0.18	-0.60796	1.45863	-0.926672	0.965928	0.929873	0.935405	0.3292	0.01642	-0.214552	0.0990707	0.0349049	0	0	-0.349876	-0.060575	-0.162401	0.220237	0.262053	0	0	-0.183621	0.0562493	-0.207923	-0.247747	-0.0474934	-0.461743	0.506266	1.06053	0	0	-0.0582871	-0.387011	0.50167	0.628893	0.607805	0	0
0.19	-0.618534	1.45726	-0.913924	0.964733	0.918499	0.934507	0.331735	0.0190249	-0.223981	0.113994	0.0373637	0	0	-0.354621	-0.0678877	-0.167855	0.237401	0.26406	0	0	-0.183052	0.0584907	-0.211168	-0.248832	-0.0480803	-0.461269	0.507146	1.06072	0	0	-0.0580423	-0.386833	0.504007	0.629463	0.608645	0	0
0.2	-0.630432	1.45588	-0.899297	0.963565	0.906829	0.933761	0.334139	0.0215588	-0.233583	0.132872	0.0380978	0	0	-0.358297	-0.0759673	-0.172057	0.256575	0.264954	0	0	-0.181801	0.0611713	-0.214886	-0.251365	-0.0489263	-0.460968	0.507986	1.06159	0	0	-0.0588456	-0.386223	0.505491	0.629887	0.608761	0	0
0.21	-0.647353	1.45453	-0.878757	0.962454	0.894853	0.933141	0.335626	0.0245007	-0.241792	0.15348	0.0367368	0	0	-0.360294	-0.0850603	-0.174527	0.277976	0.263996	0	0	-0.179207	0.0646643	-0.219467	-0.255248	-0.0500744	-0.460859	0.508538	1.06228	0	0	-0.0607216	-0.384797	0.506275	0.629369	0.608682	0	0
0.22	-0.666885	1.45348	-0.854488	0.961414	0.882581	0.932578	0.33544	0.0276479	-0.246594	0.173746	0.0333682	0	0	-0.360301	-0.0947096	-0.174954	0.301838	0.261353	0	0	-0.175123	0.0686023	-0.224977	-0.261043	-0.0512706	-0.46133	0.510371	1.06195	0	0	-0.0633553	-0.382574	0.506477	0.627427	0.60875	0	0
